<?xml version="1.0" standalone="no"?>
<!DOCTYPE svg PUBLIC "-//W3C//DTD SVG 20010904//EN"
 "http://www.w3.org/TR/2001/REC-SVG-20010904/DTD/svg10.dtd">
<svg version="1.0" xmlns="http://www.w3.org/2000/svg"
 width="366.000000pt" height="366.000000pt" viewBox="0 0 366.000000 366.000000"
 preserveAspectRatio="xMidYMid meet">
<metadata>
Created by potrace 1.11, written by Peter Selinger 2001-2013
</metadata>
<g transform="translate(0.000000,366.000000) scale(0.100000,-0.100000)"
fill="#000000" stroke="none">
<path d="M1570 3639 c-63 -9 -124 -20 -135 -22 -11 -3 -41 -10 -66 -16 -217
-50 -568 -232 -725 -376 -205 -188 -336 -354 -442 -562 -74 -145 -140 -335
-169 -483 -41 -215 -37 -537 10 -745 88 -385 298 -735 592 -988 97 -84 100
-85 183 -141 227 -150 497 -251 772 -289 98 -14 413 -16 465 -4 11 2 42 8 68
11 250 37 530 151 762 312 95 66 322 279 376 352 13 19 29 39 34 45 70 79 209
342 264 501 38 109 77 282 90 396 11 109 7 373 -9 470 -65 407 -253 770 -540
1045 -273 261 -562 409 -945 485 -92 18 -138 22 -300 24 -123 2 -202 -2 -285
-15z"/>
</g>
</svg>
